<svg xmlns="http://www.w3.org/2000/svg" width="600" height="600" viewBox="0 0 600 600">
  <rect width="600" height="600" fill="#F4F0E8"/>
  <path d="M300 220c80-80 160-60 160 10 0 60-70 90-160 90s-160-30-160-90c0-70 80-90 160-10z" fill="#E5DBA9"/>
  <g stroke="#B7A652" stroke-width="9">
    <line x1="210" y1="300" x2="390" y2="300"/>
    <line x1="225" y1="330" x2="375" y2="330"/>
    <line x1="245" y1="360" x2="355" y2="360"/>
  </g>
  <path d="M200 420c0-50 60-70 130-50-70-10-100 20-100 50z" fill="#A99A4A"/>
  <path d="M400 390c0-45 48-66 100-50-52-8-80 24-80 50z" fill="#B7A652"/>
  <circle cx="300" cy="180" r="12" fill="#B7A652"/>
</svg>